<svg xmlns="http://www.w3.org/2000/svg" viewBox="0 0 520 540"><defs><linearGradient id="o" x1="0" y1="0" x2="1" y2="1"><stop stop-color="#fafaf7"/><stop offset=".6" stop-color="#d8d8d3"/><stop offset="1" stop-color="#a2a5a6"/></linearGradient><linearGradient id="s" x1="0" y1="0" x2="0" y2="1"><stop stop-color="#121820"/><stop offset=".5" stop-color="#aebbc7"/><stop offset="1" stop-color="#050709"/></linearGradient><filter id="d"><feDropShadow dx="0" dy="18" stdDeviation="16" flood-opacity=".24"/></filter></defs><g filter="url(#d)"><rect x="211" y="38" width="244" height="456" rx="48" fill="#1b2025" stroke="#b9b9b5" stroke-width="7"/><rect x="223" y="52" width="220" height="428" rx="37" fill="url(#s)"/><rect x="240" y="70" width="186" height="392" rx="29" fill="none" stroke="#e9eef2" stroke-opacity=".65" stroke-width="6"/><rect x="63" y="55" width="246" height="450" rx="50" fill="url(#o)" stroke="#9fa1a2" stroke-width="4"/><rect x="81" y="75" width="178" height="150" rx="43" fill="#e1e1dc"/><circle cx="132" cy="123" r="35" fill="#202020"/><circle cx="207" cy="123" r="35" fill="#202020"/><circle cx="132" cy="195" r="35" fill="#202020"/><circle cx="132" cy="123" r="24" fill="#5c7185"/><circle cx="207" cy="123" r="24" fill="#718292"/><circle cx="132" cy="195" r="24" fill="#496074"/><circle cx="218" cy="190" r="10" fill="#242424"/><circle cx="272" cy="113" r="9" fill="#fff"/><path d="M168 338c-16 0-29 13-29 31 0 22 15 47 31 47 8 0 11-5 19-5 7 0 11 5 19 5 16 0 28-23 29-42-14-7-17-28-3-38-8-9-21-11-29-11-9 0-17 6-23 6-5 0-9-6-14-6z" fill="#929596" opacity=".52"/></g></svg>
